<svg width="936" height="608" viewBox="0 0 936 608" fill="none" xmlns="http://www.w3.org/2000/svg">
<path d="M3 54H880.5M3 104H880.5M3 154H880.5M3 204H880.5M3 254H880.5M3 304H880.5M3 354H880.5M3 404H880.5M3 454H880.5M3 504H880.5M3 554H880.5M62.5 1V606.5M126 1V606.5M189.5 1V606.5M253 1V606.5M316.5 1V606.5M380 1V606.5M443.5 1V606.5M507 1V606.5M570.5 1V606.5M634 1V606.5M697.5 1V606.5M761 1V606.5M824.5 1V606.5M1 1H881V607H1V1Z" stroke="url(#paint0_linear_101_15)" stroke-opacity="0.1"/>
<g opacity="0.5" clip-path="url(#clip0_101_15)">
<path d="M246.425 181.167C245.098 179.155 243.68 177.714 241.227 176.797C236.316 174.968 229.287 178.213 228.214 183.289C227.974 184.082 227.822 184.96 227.733 185.955L227.533 188.207L225.49 187.237C224.586 186.809 223.751 186.495 222.946 186.299C218.026 184.648 211.662 189.056 210.747 194.215C210.29 196.795 210.812 198.748 211.872 200.913C215.232 207.233 222.581 209.63 223.554 210.041C228.663 211.882 233.939 213.368 239.114 214.558C240.034 214.744 240.818 214.888 241.601 215.028C242.068 215.106 242.533 215.19 242.997 215.267C243.165 214.828 243.328 214.387 243.496 213.945C243.775 213.199 244.049 212.45 244.354 211.564C245.957 206.5 247.356 201.202 248.367 195.862C248.506 194.815 250.172 187.266 246.431 181.164" fill="#D13852"/>
<path d="M243.919 181.13C243.608 180.597 243.22 180.113 242.769 179.693C242.357 179.309 241.891 178.988 241.384 178.742C238.416 177.293 234.413 178.448 231.819 180.726C230.831 181.657 229.93 182.743 230.028 184.138C230.116 184.71 230.623 184.72 231.19 184.358C233.168 182.915 235.627 181.791 238.015 181.632C238.61 181.593 239.201 181.615 239.78 181.704C241.714 181.977 243.215 183.26 244.392 184.711C244.969 184.207 244.876 183.222 244.563 182.478C244.401 182.006 244.184 181.553 243.919 181.13Z" fill="#F1A5B1"/>
</g>
<g opacity="0.5">
<path d="M36.6 407L53.8 389.9L40.5 371.7C39.9 372.5 39.4 373.6 39.3 374.8L36 403.8C35.9 405 36.1 406.1 36.6 407ZM94.2 368.6L69.3 390.7L88.9 416C90 415.1 90.7 413.8 90.9 412.2L95.3 372.7C95.6 371 95.1 369.6 94.2 368.6Z" fill="#C4CED6"/>
<path d="M69.3 390.7L94.2 368.6C93.4 367.7 92.3 367.2 91 367.3L42.5 370.5C41.8 370.5 41 371 40.5 371.7L53.7 389.9L36.6 407C37 407.8 37.6 408.3 38.3 408.5L85.5 417C86.8 417.2 88 416.9 89 416.1L69.3 390.7Z" fill="#DAE4EA"/>
<path d="M73.3 382.8C71.6 373.9 62.9 378 61.7 382.2C61.2 377.7 54.3 374.6 51.4 382.5C48.2 391.1 58.8 400.1 59.6 401.6C60.6 400.7 75.2 392.7 73.3 382.8Z" fill="#F46767"/>
</g>
<g opacity="0.5" clip-path="url(#clip1_101_15)">
<path d="M930.41 282.452C931.362 280.237 931.786 278.261 931.204 275.707C930.033 270.6 923.459 266.511 918.629 268.404C917.834 268.64 917.017 268.995 916.137 269.468L914.146 270.538L913.834 268.299C913.694 267.308 913.497 266.438 913.218 265.658C911.894 260.641 904.713 257.746 899.901 259.817C897.494 260.853 896.15 262.362 894.923 264.438C891.49 270.718 893.526 278.176 893.718 279.214C894.988 284.495 896.646 289.719 898.496 294.696C898.846 295.567 899.157 296.302 899.47 297.033C899.662 297.466 899.847 297.9 900.038 298.33C900.497 298.229 900.956 298.122 901.417 298.02C902.194 297.843 902.97 297.66 903.878 297.428C908.989 295.984 914.184 294.242 919.201 292.15C920.152 291.692 927.375 288.934 930.416 282.455" fill="#D13852"/>
<path d="M929.064 280.338C929.338 279.785 929.529 279.196 929.633 278.588C929.727 278.033 929.738 277.466 929.666 276.908C929.245 273.632 926.08 270.922 922.751 270.008C921.431 269.694 920.028 269.538 918.916 270.387C918.487 270.775 918.757 271.204 919.371 271.478C921.664 272.338 923.954 273.775 925.4 275.681C925.759 276.158 926.066 276.663 926.309 277.196C927.145 278.961 926.898 280.921 926.332 282.701C927.07 282.906 927.842 282.288 928.291 281.617C928.597 281.222 928.856 280.792 929.064 280.338Z" fill="#F1A5B1"/>
</g>
<defs>
<linearGradient id="paint0_linear_101_15" x1="984" y1="245.5" x2="-42" y2="245.5" gradientUnits="userSpaceOnUse">
<stop stop-opacity="0"/>
<stop offset="0.5"/>
<stop offset="1" stop-opacity="0"/>
</linearGradient>
<clipPath id="clip0_101_15">
<rect width="40" height="40" fill="white" transform="translate(206 190.846) rotate(-29.7464)"/>
</clipPath>
<clipPath id="clip1_101_15">
<rect width="40" height="40" fill="white" transform="translate(900.106 254) rotate(26.9135)"/>
</clipPath>
</defs>
</svg>
