<svg width="882" height="608" viewBox="0 0 882 608" fill="none" xmlns="http://www.w3.org/2000/svg">
<path d="M3 54H880.5M3 104H880.5M3 154H880.5M3 204H880.5M3 254H880.5M3 304H880.5M3 354H880.5M3 404H880.5M3 454H880.5M3 504H880.5M3 554H880.5M62.5 1V606.5M126 1V606.5M189.5 1V606.5M253 1V606.5M316.5 1V606.5M380 1V606.5M443.5 1V606.5M507 1V606.5M570.5 1V606.5M634 1V606.5M697.5 1V606.5M761 1V606.5M824.5 1V606.5M1 1H881V607H1V1Z" stroke="url(#paint0_linear_101_2)" stroke-opacity="0.1"/>
<defs>
<linearGradient id="paint0_linear_101_2" x1="984" y1="245.5" x2="-42" y2="245.5" gradientUnits="userSpaceOnUse">
<stop stop-opacity="0"/>
<stop offset="0.5"/>
<stop offset="1" stop-opacity="0"/>
</linearGradient>
</defs>
</svg>
