<svg width="882" height="593" viewBox="0 0 882 593" fill="none" xmlns="http://www.w3.org/2000/svg">
<path d="M3 39H880.5M3 89H880.5M3 139H880.5M3 189H880.5M3 239H880.5M3 289H880.5M3 339H880.5M3 389H880.5M3 439H880.5M3 489H880.5M3 539H880.5M62.5 -14V591.5M126 -14V591.5M189.5 -14V591.5M253 -14V591.5M316.5 -14V591.5M380 -14V591.5M443.5 -14V591.5M507 -14V591.5M570.5 -14V591.5M634 -14V591.5M697.5 -14V591.5M761 -14V591.5M824.5 -14V591.5M1 -14H881V592H1V-14Z" stroke="url(#paint0_linear_3_129)" stroke-opacity="0.1"/>
<defs>
<linearGradient id="paint0_linear_3_129" x1="984" y1="230.5" x2="-42" y2="230.5" gradientUnits="userSpaceOnUse">
<stop stop-opacity="0"/>
<stop offset="0.5"/>
<stop offset="1" stop-opacity="0"/>
</linearGradient>
</defs>
</svg>
